<?xml version="1.0" encoding="utf-8"?>
<!-- Generator: Adobe Illustrator 24.2.0, SVG Export Plug-In . SVG Version: 6.00 Build 0)  -->
<!DOCTYPE svg PUBLIC "-//W3C//DTD SVG 1.1//EN" "http://www.w3.org/Graphics/SVG/1.1/DTD/svg11.dtd" [
	<!ENTITY ns_extend "http://ns.adobe.com/Extensibility/1.0/">
	<!ENTITY ns_ai "http://ns.adobe.com/AdobeIllustrator/10.0/">
	<!ENTITY ns_graphs "http://ns.adobe.com/Graphs/1.0/">
	<!ENTITY ns_vars "http://ns.adobe.com/Variables/1.0/">
	<!ENTITY ns_imrep "http://ns.adobe.com/ImageReplacement/1.0/">
	<!ENTITY ns_sfw "http://ns.adobe.com/SaveForWeb/1.0/">
	<!ENTITY ns_custom "http://ns.adobe.com/GenericCustomNamespace/1.0/">
	<!ENTITY ns_adobe_xpath "http://ns.adobe.com/XPath/1.0/">
]>
<svg version="1.1" xmlns:x="&ns_extend;" xmlns:i="&ns_ai;" xmlns:graph="&ns_graphs;"
	 xmlns="http://www.w3.org/2000/svg" xmlns:xlink="http://www.w3.org/1999/xlink" x="0px" y="0px" width="1000px" height="775px"
	 viewBox="0 0 1000 775" enable-background="new 0 0 1000 775" xml:space="preserve">
<metadata>
	<sfw  xmlns="&ns_sfw;">
		<slices></slices>
		<sliceSourceBounds  bottomLeftOrigin="true" height="9993.52" width="9472.192" x="-5221" y="-1726"></sliceSourceBounds>
	</sfw>
</metadata>
<g id="FILL-BACKGROUND">
	<rect fill="#FFFFFF" width="1000" height="775"/>
</g>
<g id="N-TEXT">
</g>
<g id="AG-DIAGRAM">
	<g id="POLYLINE_1053_">
		<g>
			<g>
				
					<line fill="none" stroke="#FF6B6B" stroke-width="3.25" stroke-linecap="round" stroke-linejoin="round" x1="111.111" y1="694.778" x2="113.111" y2="694.778"/>
				
					<line fill="none" stroke="#FF6B6B" stroke-width="3.25" stroke-linecap="round" stroke-linejoin="round" stroke-dasharray="3.9834,6.971" x1="120.082" y1="694.778" x2="883.403" y2="694.778"/>
				
					<line fill="none" stroke="#FF6B6B" stroke-width="3.25" stroke-linecap="round" stroke-linejoin="round" x1="886.889" y1="694.778" x2="888.889" y2="694.778"/>
			</g>
		</g>
	</g>
</g>
<g id="AG-PEOPLE">
	<g id="POLYLINE_1040_">
		
			<path fill="none" stroke="#FF6B6B" stroke-width="2.75" stroke-linecap="round" stroke-linejoin="round" stroke-miterlimit="10" d="
			M744.787,580.633c2.323,8.201,5.218,16.485,8.513,24.346c3.812,9.431,15.008,30.774,19.639,40.212
			c1.327,2.714,2.356,5.616,2.82,8.608c0.227,1.46,0.32,2.952,0.254,4.429c-0.026,0.745-0.133,1.611-0.214,2.357
			c-0.086,0.855-0.166,1.861-0.199,2.716c-0.049,1.257-0.038,2.545,0.113,3.795c0.103,0.824,0.268,1.653,0.57,2.429
			c0.343,0.815,0.479,1.639,0.542,2.507c0.172,2.88-0.451,5.758-1.071,8.555c-0.348,1.669-0.621,3.387-0.729,5.089
			c-0.074,1.209-0.069,2.448,0.093,3.65c0.098,0.66,0.219,1.409,0.486,2.004c0.042,0.086,0.056,0.115,0.056,0.115
			c0.045,0.085,0.061,0.113,0.061,0.113c0.048,0.083,0.065,0.111,0.065,0.111c0.052,0.082,0.07,0.109,0.07,0.109
			c0.055,0.081,0.074,0.107,0.074,0.107c0.059,0.079,0.079,0.105,0.079,0.105c0.859,1.077,2.112,1.593,3.335,1.969
			c1.621,0.473,3.331,0.659,5.013,0.757c0.902,0.122,18.487,0.04,19.935,0.062c0.629,0,1.281-0.025,1.908-0.082
			c1.14-0.103,2.362-0.335,3.41-0.77c1.057-0.432,1.977-1.101,2.584-1.994c0.46-0.663,0.655-1.328,0.86-2.056
			c0.284-1.045,0.522-2.258,0.288-3.316c-0.017-0.07-0.026-0.105-0.026-0.105c-0.019-0.068-0.03-0.102-0.03-0.102
			c-0.022-0.066-0.033-0.099-0.033-0.099c-0.024-0.064-0.036-0.095-0.036-0.095c-0.026-0.062-0.039-0.092-0.039-0.092
			c-0.028-0.06-0.043-0.089-0.043-0.089c-0.046-0.086-0.062-0.114-0.062-0.114c-0.05-0.081-0.068-0.108-0.068-0.108
			c-0.055-0.077-0.074-0.102-0.074-0.102c-0.059-0.073-0.079-0.096-0.079-0.096c-0.063-0.068-0.085-0.09-0.085-0.09
			c-0.068-0.064-0.091-0.085-0.091-0.085c-2.264-1.642-5.279-3.288-7.698-4.725c-0.55-0.317-1.095-0.685-1.593-1.079
			c-2.287-1.792-3.885-4.333-4.898-7.031c-0.686-1.777-1.103-3.694-1.458-5.563c-0.409-1.961-0.911-4.033-1.507-5.943
			c-0.647-2.059-1.426-4.115-2.518-5.983c-0.493-0.78-0.933-1.584-1.263-2.448c-0.865-2.221-1.284-4.61-1.564-6.969
			c-0.289-2.429-0.358-5.011-0.419-7.458c-0.07-1.896-0.225-4.157-0.394-6.048c-0.987-10.166-2.728-20.58-4.964-30.545
			c-2.336-10.217-5.554-20.787-8.964-30.707"/>
	</g>
	<g id="POLYLINE_1039_">
		
			<path fill="none" stroke="#FF6B6B" stroke-width="2.75" stroke-linecap="round" stroke-linejoin="round" stroke-miterlimit="10" d="
			M604.447,577.308c-2.292,12.991-3.992,26.361-4.464,39.541c-0.228,9.437-0.303,20.92-0.759,30.359
			c-0.201,3.765-0.379,7.994-0.88,11.717c-0.459,3.387-1.113,6.809-2.42,9.981c-1.696,3.944-4.498,7.377-7.783,10.113
			c-3.076,2.573-6.693,4.552-10.597,5.52c-1.004,0.263-2.07,0.421-3.09,0.603c-0.817,0.161-1.635,0.383-2.413,0.681
			c-1.266,0.478-2.55,1.259-3.449,2.242c-0.555,0.595-0.974,1.239-1.296,1.905c-0.28,0.581-0.468,1.127-0.526,1.702
			c-0.006,0.086-0.008,0.114-0.008,0.114c-0.003,0.084-0.003,0.112-0.003,0.112c0,0.083,0.001,0.11,0.001,0.11
			c0.004,0.081,0.006,0.108,0.006,0.108c0.007,0.08,0.01,0.106,0.01,0.106c0.011,0.078,0.015,0.104,0.015,0.104
			c0.014,0.076,0.019,0.102,0.019,0.102c0.017,0.075,0.024,0.099,0.024,0.099c0.021,0.073,0.029,0.097,0.029,0.097
			c0.024,0.072,0.033,0.095,0.033,0.095c0.028,0.07,0.038,0.093,0.038,0.093c0.031,0.068,0.042,0.091,0.042,0.091
			c0.035,0.067,0.047,0.089,0.047,0.089c0.051,0.086,0.065,0.108,0.065,0.108c0.057,0.084,0.072,0.104,0.072,0.104
			c0.063,0.081,0.079,0.101,0.079,0.101c0.068,0.078,0.086,0.098,0.086,0.098c0.074,0.076,0.093,0.094,0.093,0.094
			c0.08,0.073,0.1,0.091,0.1,0.091c0.086,0.07,0.108,0.088,0.108,0.088c0.068,0.051,0.091,0.068,0.091,0.068
			c0.071,0.049,0.096,0.066,0.096,0.066c0.667,0.44,1.44,0.621,2.152,0.756c0.781,0.136,1.589,0.19,2.381,0.206
			c10.909-0.055,31.757,0.132,42.567-0.068c1.782-0.284,3.044-1.639,3.796-3.135c0.827-1.626,1.29-3.434,1.372-5.256
			c0.113-1.85-0.312-3.725-0.55-5.55c-0.43-3.202-0.908-7.568-1.223-10.791c-0.057-0.64-0.094-1.321-0.109-1.964
			c-0.057-2.529,0.177-5.105,0.564-7.603c0.426-2.728,1.058-5.488,1.79-8.15c0.47-2.029,9.126-28.581,9.967-31.297
			c3.668-11.467,6.183-23.732,8.327-35.574"/>
	</g>
	<g id="POLYLINE_1038_">
		
			<path fill="none" stroke="#FF6B6B" stroke-width="2.75" stroke-linecap="round" stroke-linejoin="round" stroke-miterlimit="10" d="
			M628.782,402.659c-1.328,20.059-5.383,75.873-6.076,95.031c-0.3,6.308-0.38,15.894-0.652,22.195
			c-0.142,2.565-0.393,5.196-0.952,7.705c-0.755,3.445-2.153,6.763-3.628,9.956c-3.525,7.646-16.124,31.587-13.499,38.872
			c0.129,0.34,0.286,0.623,0.453,0.862c0.061,0.085,0.082,0.113,0.082,0.113c0.064,0.082,0.086,0.109,0.086,0.109
			c0.067,0.08,0.089,0.106,0.089,0.106c0.07,0.077,0.093,0.102,0.093,0.102c0.539,0.57,1.205,0.938,1.852,1.217
			c0.748,0.32,1.56,0.553,2.346,0.762c2.197,0.547,4.814,1.167,6.929,1.901c3.611,1.211,8.87,3.232,12.523,4.142
			c1.553,0.39,3.154,0.712,4.754,0.816c1.188,0.083,2.481,0.024,3.626-0.274c2.112-0.526,3.669-2.013,4.778-3.783
			c0.973-1.545,1.658-3.27,2.24-4.994c0.909-2.639,2.219-8.175,2.94-10.95c0.683-2.605,1.527-5.34,2.419-7.877
			c3.295-9.367,8.729-20.792,12.131-30.133c3.911-10.544,10.929-32.863,14.763-43.471c2.491-6.94,5.467-14.593,8.391-21.36
			c2.082-4.727,4.291-9.749,6.927-14.197c0.58-0.938,1.205-1.942,1.984-2.71c0.073-0.067,0.109-0.099,0.109-0.099
			c0.071-0.059,0.106-0.087,0.106-0.087c0.068-0.051,0.102-0.075,0.102-0.075c0.066-0.043,0.098-0.063,0.098-0.063
			c0.063-0.035,0.094-0.051,0.094-0.051c0.061-0.027,0.091-0.038,0.091-0.038c0.087-0.025,0.115-0.031,0.115-0.031
			c0.085-0.008,0.1-0.008,0.1-0.008c0.073,0.007,0.087,0.01,0.087,0.01c0.082,0.026,0.095,0.032,0.095,0.032
			c0.077,0.045,0.089,0.054,0.089,0.054c0.083,0.076,0.094,0.089,0.094,0.089c0.066,0.085,0.077,0.1,0.077,0.1
			c0.052,0.084,0.062,0.102,0.062,0.102c0.039,0.076,0.049,0.096,0.049,0.096c0.289,0.68,0.355,1.322,0.469,2.023l0.545,4.329
			c0.427,3.29,1.2,6.57,2.225,9.724c3.002,9.464,10.39,24.786,14.412,34.033c3.073,7.027,5.7,14.356,7.687,21.764
			c2.121,7.888,4.743,19.317,7.83,26.769c3.057,7.758,7.936,16.528,11.136,24.226c0.874,2.049,1.621,4.725,2.355,6.831
			c0.388,1.078,0.932,2.25,1.732,3.04c1.2,1.21,2.843,1.486,4.448,1.563c1.905,0.073,3.832-0.176,5.706-0.501
			c5.22-0.967,10.384-2.619,15.343-4.496c2.487-1.008,5.415-2.235,6.611-4.792c0.505-1.096,0.623-2.199,0.631-3.371
			c-0.008-1.583-0.282-3.176-0.612-4.721c-1.397-6.009-4.426-15.255-5.99-21.243c-2.471-9.168-4.681-18.693-5.578-28.153
			c-0.805-7.522-0.827-21.029-1.01-28.709c-0.207-9.831-0.969-20.301-2.029-30.072c-1.766-16.183-4.256-34.017-7.034-50.067
			c0,0-0.149-0.742-0.149-0.742l-0.075-0.353l-0.076-0.341c0,0-0.077-0.329-0.077-0.329s-0.078-0.318-0.078-0.318l-0.079-0.306
			c0,0-0.081-0.295-0.081-0.295s-0.083-0.284-0.083-0.284l-0.042-0.138l-0.043-0.135c0,0-0.044-0.133-0.044-0.133
			c-0.095-0.277-0.206-0.589-0.325-0.859c0,0-0.05-0.113-0.05-0.113s-0.05-0.111-0.05-0.111s-0.051-0.108-0.051-0.108
			s-0.052-0.106-0.052-0.106s-0.053-0.104-0.053-0.104c-0.085-0.173-0.205-0.36-0.282-0.484c-0.03-0.045-0.06-0.09-0.06-0.09
			c-0.03-0.044-0.061-0.088-0.061-0.088c-0.062-0.086-0.094-0.128-0.094-0.128c-0.064-0.083-0.097-0.124-0.097-0.124
			c-0.066-0.08-0.1-0.119-0.1-0.119c-0.068-0.077-0.103-0.115-0.103-0.115c-0.07-0.074-0.106-0.11-0.106-0.11
			c-1.055-1.039-2.39-1.434-3.761-1.788"/>
	</g>
	<g id="POLYLINE_1037_">
		
			<path fill="none" stroke="#FF6B6B" stroke-width="2.75" stroke-linecap="round" stroke-linejoin="round" stroke-miterlimit="10" d="
			M638.677,371.003c-1.692,1.822-3.283,3.798-4.628,5.89c-1.659,2.567-3.032,5.347-4.205,8.167
			c-1.362,3.352-2.519,6.872-2.807,10.498c-0.174,2.318,0.096,4.778,1.469,6.722c0.96,1.378,2.261,2.378,3.696,3.182
			c1.86,1.037,3.914,1.742,5.954,2.333c6.024,1.672,12.4,2.596,18.595,3.39c13.622,1.626,27.763,2.352,41.479,2.056
			c8.671-0.248,17.524-0.821,25.966-2.921c5.97-1.47,11.756-3.825,16.983-7.072c1.968-1.215,3.972-2.529,5.376-4.403
			c1.152-1.528,1.747-3.31,1.943-5.161c0.212-1.906,0.112-3.853-0.071-5.757c-0.513-5.227-2.302-13.123-3.187-18.352
			c-0.718-4.161-1.17-8.584-1.458-12.796c-0.408-6.469-0.833-15.431-1.852-21.764c-1.036-6.993-2.671-16.135-2.726-23.161
			c-0.095-4.425,0.415-8.88,1.431-13.186c1.251-5.492,3.597-12.15,5.072-17.589c0.816-3.05,1.479-6.208,1.645-9.368
			c0.156-2.795-0.06-5.63-0.735-8.35c-0.665-2.701-1.785-5.295-3.231-7.668c-1.993-3.267-4.574-6.178-7.259-8.891
			c-4.831-4.864-11.382-10.022-16.731-14.327"/>
	</g>
	<g id="POLYLINE_1036_">
		
			<path fill="none" stroke="#FF6B6B" stroke-width="2.75" stroke-linecap="round" stroke-linejoin="round" stroke-miterlimit="10" d="
			M640.075,223.933c-0.554,2.871-1.434,6.799-1.679,9.665c-0.205,2.168-0.193,4.398,0.028,6.565
			c0.217,2.153,0.642,4.405,1.098,6.522c1.628,7.332,4.99,18.609,6.551,25.93c0.984,4.465,1.8,9.137,2.242,13.69
			c0.791,7.352,0.713,18.935,0.84,26.413c0.164,5.554,0.395,11.273,2.032,16.615c1.169,3.955,3.497,8.345,4.821,12.25
			c0.799,2.348,1.258,4.835,1.179,7.32c-0.155,5.096-1.921,10.112-4.784,14.314c-1.946,2.84-4.512,5.29-7.54,6.948
			c-0.839,0.456-1.727,0.858-2.643,1.129c-0.851,0.249-1.751,0.398-2.56,0.226c-0.061-0.014-0.092-0.022-0.092-0.022
			c-0.06-0.016-0.089-0.025-0.089-0.025c-0.058-0.018-0.087-0.028-0.087-0.028c-0.084-0.031-0.112-0.042-0.112-0.042
			c-0.081-0.035-0.107-0.047-0.107-0.047c-0.078-0.039-0.103-0.053-0.103-0.053c-0.074-0.043-0.098-0.058-0.098-0.058
			c-0.07-0.047-0.093-0.064-0.093-0.064c-0.067-0.052-0.088-0.069-0.088-0.069c-0.083-0.075-0.103-0.095-0.103-0.095
			c-0.077-0.082-0.095-0.104-0.095-0.104c-0.056-0.071-0.077-0.098-0.077-0.098c-0.058-0.085-0.076-0.114-0.076-0.114
			c-0.035-0.06-0.052-0.091-0.052-0.091c-0.032-0.063-0.048-0.095-0.048-0.095c-0.03-0.066-0.044-0.099-0.044-0.099
			c-0.027-0.069-0.04-0.104-0.04-0.104c-0.025-0.071-0.036-0.108-0.036-0.108c-0.022-0.074-0.032-0.112-0.032-0.112
			c-0.02-0.077-0.029-0.116-0.029-0.116c-0.202-0.972-0.08-1.89,0.073-2.848c0.298-1.699,0.839-3.43,1.37-5.071
			c0.868-2.653,2.554-7.105,3.108-9.785c0.404-1.841,0.548-3.771,0.155-5.626c-0.266-1.305-0.766-2.56-1.354-3.752
			c-0.789-1.597-1.778-3.18-2.749-4.675l-4.893-7.288c-4.89-7.446-8.752-15.779-9.996-24.66c-1.156-8.459-0.074-17.22,2.97-25.189
			c1.613-4.217,3.836-8.228,6.286-12.013c2.704-4.155,5.83-8.391,8.94-12.252"/>
	</g>
	<g id="POLYLINE_1023_">
		
			<path fill="none" stroke="#FF6B6B" stroke-width="2.75" stroke-linecap="round" stroke-linejoin="round" stroke-miterlimit="10" d="
			M707.027,193.915c3.429-3.166,6.723-6.759,8.292-11.237c0.777-2.169,1.134-4.487,1.347-6.774
			c0.354-3.635,0.253-8.801,0.566-12.446c0.191-2.504,0.911-5.314,1.441-7.771c0.246-1.182,0.42-2.41,0.451-3.619
			c0.068-2.172-0.201-4.378-0.547-6.519"/>
	</g>
	<g id="POLYLINE_1020_">
		
			<path fill="none" stroke="#FF6B6B" stroke-width="2.75" stroke-linecap="round" stroke-linejoin="round" stroke-miterlimit="10" d="
			M702.814,160.875c-0.904-0.646-1.777-1.367-2.481-2.231c-0.754-0.927-1.235-1.847-1.64-2.919c-0.87-2.384-1.139-5.067-0.394-7.518
			c0.549-1.755,1.681-3.608,3.296-4.496c0.083-0.043,0.125-0.063,0.125-0.063c0.083-0.039,0.125-0.058,0.125-0.058
			c0.084-0.036,0.126-0.052,0.126-0.052c0.084-0.032,0.126-0.047,0.126-0.047c0.084-0.028,0.126-0.041,0.126-0.041
			c0.084-0.024,0.126-0.035,0.126-0.035c0.075-0.018,0.107-0.025,0.107-0.025c0.065-0.013,0.098-0.019,0.098-0.019
			c0.065-0.011,0.098-0.015,0.098-0.015c0.065-0.008,0.098-0.012,0.098-0.012c0.065-0.006,0.097-0.008,0.097-0.008
			c0.065-0.004,0.097-0.005,0.097-0.005c0.584-0.02,1.132,0.152,1.58,0.409c0.086,0.051,0.114,0.068,0.114,0.068
			c0.084,0.055,0.112,0.073,0.112,0.073c0.083,0.058,0.11,0.078,0.11,0.078c0.081,0.062,0.108,0.083,0.108,0.083
			c0.08,0.065,0.106,0.087,0.106,0.087c0.078,0.068,0.104,0.092,0.104,0.092c1.494,1.349,1.47,3.521,2.505,5.097
			c0.045,0.063,0.068,0.094,0.068,0.094c0.047,0.061,0.071,0.09,0.071,0.09c0.074,0.086,0.1,0.114,0.1,0.114
			c0.079,0.08,0.106,0.106,0.106,0.106c0.083,0.074,0.097,0.086,0.097,0.086c0.073,0.057,0.088,0.069,0.088,0.069
			c0.076,0.053,0.091,0.064,0.091,0.064c0.079,0.049,0.095,0.058,0.095,0.058c0.069,0.037,0.088,0.047,0.088,0.047
			c0.08,0.038,0.1,0.046,0.1,0.046c0.083,0.034,0.104,0.041,0.104,0.041c0.086,0.03,0.107,0.037,0.107,0.037
			c0.066,0.02,0.088,0.026,0.088,0.026c0.068,0.017,0.091,0.023,0.091,0.023c0.88,0.185,1.685,0.019,2.508-0.188
			c0.987-0.267,1.946-0.672,2.86-1.129c1.447-0.741,2.951-1.648,3.947-2.949c0.69-0.896,1.072-1.876,1.383-2.936
			c0.33-1.161,0.543-2.392,0.731-3.583c0.64-4.268,0.818-8.661,0.178-12.939c-0.365-2.388-1.012-4.76-2.077-6.934
			c-2.043-4.178-5.408-7.568-9.102-10.326c-2.714-2.021-5.692-3.765-8.712-5.286c-2.901-1.456-5.929-2.785-9.055-3.679
			c-2.252-0.643-4.589-1.056-6.932-1.129c-2.185-0.072-4.39,0.158-6.521,0.646c-3.052,0.698-6.002,1.864-8.741,3.376
			c-2.532,1.407-4.922,3.127-6.939,5.214c-1.638,1.694-2.984,3.674-3.984,5.807c-1.21,2.56-1.941,5.343-2.465,8.117"/>
	</g>
	<g id="POLYLINE_1007_">
		
			<path fill="none" stroke="#FF6B6B" stroke-width="2.75" stroke-linecap="round" stroke-linejoin="round" stroke-miterlimit="10" d="
			M695.452,171.122c1.883,7.199,4.167,14.747,6.708,21.745"/>
	</g>
	<g id="POLYLINE_1006_">
		
			<path fill="none" stroke="#FF6B6B" stroke-width="2.75" stroke-linecap="round" stroke-linejoin="round" stroke-miterlimit="10" d="
			M661.128,193.306c0.801-5.715,1.012-11.573,0.656-17.332"/>
	</g>
	<g id="POLYLINE_1005_">
		
			<path fill="none" stroke="#FF6B6B" stroke-width="2.75" stroke-linecap="round" stroke-linejoin="round" stroke-miterlimit="10" d="
			M708.985,234.664c-3.082,1.675-5.644,4.968-8.028,7.49c-1.607,1.715-3.354,3.345-5.316,4.648c-4.6,3.05-9.936,4.863-15.166,6.515
			l-11.301,3.353c-3.169,0.914-6.435,1.863-9.733,2.123c-1.583,0.12-3.2,0.071-4.748-0.301c-1.308-0.31-2.562-0.864-3.662-1.637
			c-2.527-1.786-4.32-4.421-5.74-7.129c-1.349-2.61-2.368-5.404-3.162-8.229c-1.054-3.786-1.735-7.747-1.999-11.668
			c-0.46-6.94,0.434-14.071,3.266-20.462c1.816-4.12,4.462-7.926,7.95-10.802c2.209-1.836,4.733-3.298,7.39-4.383
			c3.819-1.557,7.917-2.398,11.998-2.909c10.602-1.234,21.436-0.465,31.872,1.686c6.526,1.358,15.218,3.711,21.841,3.803
			c6.048,0.18,14.159-1.286,20.202-2.058c9.036-1.195,18.359-1.303,27.282,0.737c2.66,0.62,5.311,1.45,7.774,2.638
			c1.674,0.813,3.284,1.805,4.658,3.067c1.6,1.455,2.798,3.34,3.451,5.4c0.876,2.766,0.89,5.853-0.158,8.573
			c-0.465,1.205-1.2,2.278-2.089,3.1c-1.006,0.935-2.113,1.567-3.33,2.148c-1.643,0.773-3.453,1.381-5.178,1.948
			c-5.881,1.891-12.227,3.55-18.243,4.958c-10.024,2.277-20.377,4.297-30.656,4.849c-4.048,0.222-10.618,0.203-14.537,0.965
			C712.019,233.396,710.423,233.876,708.985,234.664z"/>
	</g>
	<g id="POLYLINE_1004_">
		
			<path fill="none" stroke="#FF6B6B" stroke-width="2.75" stroke-linecap="round" stroke-linejoin="round" stroke-miterlimit="10" d="
			M673.857,168.852c4.657-0.385,9.719-1.415,13.14-4.826c2.568-2.619,3.855-6.324,5.335-9.608c0.657-1.44,1.44-3.072,2.698-4.034
			c0.937-0.749,2.088-1.171,3.134-1.697"/>
	</g>
	<g id="POLYLINE_1003_">
		
			<path fill="none" stroke="#FF6B6B" stroke-width="2.75" stroke-linecap="round" stroke-linejoin="round" stroke-miterlimit="10" d="
			M667.926,129.49c1.359,0.79,3.106,1.584,4.499,2.324c1.007,0.536,2.051,1.235,2.796,2.088c0.833,0.94,1.334,1.967,1.762,3.112
			c1.018,2.842,1.359,5.9,1.428,8.904c0.031,2.145-0.105,4.333-0.484,6.446c-0.304,1.71-0.808,3.421-1.38,5.06
			c-0.869,2.484-2.062,5.308-2.364,7.92c-0.203,1.566-0.217,3.273-0.526,4.824c-0.229,1.224-0.759,2.478-1.648,3.294
			c-0.636,0.596-1.306,0.942-2.073,1.262c-0.813,0.329-1.678,0.558-2.536,0.732c-3.823,0.725-7.788,0.601-11.643,0.213
			c-2.825-0.328-5.71-0.776-8.352-1.87c-1.257-0.522-2.457-1.229-3.591-1.978c-1.181-0.785-2.689-1.827-3.845-2.651
			c-2.245-1.638-4.506-3.392-6.163-5.648c-0.679-0.941-1.246-2.006-1.454-3.156c-0.172-0.948-0.08-1.929,0.158-2.857
			c0.668-2.583,2.373-5.111,3.588-7.465c0.553-1.042,1.079-2.139,1.481-3.248c1.095-3.002,1.538-6.769,2.049-9.927
			c0.448-2.699,1.113-5.405,2.261-7.896c0.812-1.776,1.832-3.485,3.153-4.93c1.133-1.221,2.366-2.165,3.929-2.685
			c1.013-0.336,2.111-0.401,3.151-0.26c1.596,0.211,3.123,0.807,4.567,1.498C660.402,124.37,664.371,127.419,667.926,129.49z"/>
	</g>
	<g id="POLYLINE_1002_">
		
			<path fill="none" stroke="#FF6B6B" stroke-width="2.75" stroke-linecap="round" stroke-linejoin="round" stroke-miterlimit="10" d="
			M338.189,668.314c0.657,3.783,1.183,7.685,0.755,11.522c-0.137,1.125-0.387,2.302-0.827,3.344
			c-0.706,1.499-1.242,3.094-1.182,4.766c0.046,1.893,0.978,3.703,2.374,4.895c1.169,0.996,2.591,1.492,4.086,1.686
			c0.425,0.055,0.867,0.085,1.295,0.094c6.91,0.002,19.913,0.011,26.819-0.002c0.963-0.019,1.95-0.076,2.901-0.238
			c0.693-0.117,1.478-0.325,2.043-0.66c0.083-0.051,0.11-0.068,0.11-0.068c0.078-0.053,0.103-0.071,0.103-0.071
			c0.073-0.055,0.096-0.073,0.096-0.073c0.068-0.056,0.09-0.076,0.09-0.076c0.083-0.078,0.103-0.098,0.103-0.098
			c0.078-0.083,0.097-0.104,0.097-0.104c0.057-0.066,0.075-0.089,0.075-0.089c0.055-0.07,0.073-0.093,0.073-0.093
			c0.449-0.601,0.689-1.319,0.856-1.97c0.203-0.822,0.301-1.621,0.364-2.457c0.116-1.603,0.053-3.486-0.895-4.817
			c-0.063-0.085-0.085-0.113-0.085-0.113c-0.066-0.082-0.089-0.109-0.089-0.109c-0.069-0.079-0.092-0.104-0.092-0.104
			c-0.072-0.076-0.096-0.1-0.096-0.1c-0.753-0.71-1.553-1.12-2.441-1.537c-1.137-0.515-2.36-0.916-3.56-1.26
			c-2.604-0.741-5.225-1.754-7.707-2.838c-1.851-4.13-2.846-8.626-3.55-13.08"/>
	</g>
	<g id="POLYLINE_1001_">
		
			<path fill="none" stroke="#FF6B6B" stroke-width="2.75" stroke-linecap="round" stroke-linejoin="round" stroke-miterlimit="10" d="
			M199.433,661.966c-0.944,6.032-1.993,12.458-2.245,18.553c-0.053,1.255,0.011,2.525,0.112,3.775
			c0.065,1.145,0.075,2.317-0.008,3.462c-0.071,0.951-0.208,1.918-0.455,2.841c-0.135,0.478-0.295,1.038-0.541,1.455
			c-0.053,0.086-0.081,0.129-0.081,0.129c-0.058,0.084-0.088,0.126-0.088,0.126c-0.063,0.082-0.095,0.123-0.095,0.123
			c-0.068,0.08-0.103,0.119-0.103,0.119c-0.072,0.078-0.11,0.116-0.11,0.116c-0.077,0.075-0.117,0.113-0.117,0.113
			c-0.082,0.073-0.124,0.109-0.124,0.109c-0.566,0.474-1.194,0.758-1.829,0.982c-0.718,0.247-1.475,0.406-2.225,0.517
			c-1.078,0.158-2.209,0.221-3.299,0.237c-6.685,0.008-20.494,0.001-27.09,0.003c-0.369,0.001-0.689-0.042-0.973-0.108
			c-0.077-0.02-0.115-0.03-0.115-0.03c-0.075-0.022-0.112-0.034-0.112-0.034c-0.073-0.024-0.109-0.037-0.109-0.037
			c-0.071-0.027-0.107-0.041-0.107-0.041c-0.07-0.029-0.104-0.045-0.104-0.045c-0.068-0.032-0.101-0.048-0.101-0.048
			c-0.066-0.034-0.099-0.052-0.099-0.052c-0.064-0.037-0.096-0.056-0.096-0.056c-0.062-0.039-0.093-0.059-0.093-0.059
			c-0.061-0.042-0.09-0.063-0.09-0.063c-0.059-0.044-0.088-0.067-0.088-0.067c-0.085-0.07-0.113-0.095-0.113-0.095
			c-0.081-0.075-0.108-0.101-0.108-0.101c-0.078-0.08-0.103-0.108-0.103-0.108c-0.074-0.085-0.098-0.114-0.098-0.114
			c-0.047-0.06-0.07-0.09-0.07-0.09c-0.045-0.062-0.067-0.094-0.067-0.094c-0.043-0.064-0.065-0.097-0.065-0.097
			c-0.042-0.067-0.062-0.101-0.062-0.101c-0.471-0.826-0.584-1.634-0.658-2.537c-0.082-1.148,0.016-2.315,0.224-3.446
			c0.175-0.947,0.433-1.9,0.739-2.813c0.126-0.37,0.301-0.889,0.458-1.221c0.246-0.531,0.561-1.003,0.866-1.405
			c1.034-1.341,2.338-2.427,3.694-3.424c2.396-1.739,5.059-3.202,7.701-4.534c0.467-2.927,1.049-5.955,1.846-8.81
			c0.522-1.844,1.142-3.694,2.005-5.409"/>
	</g>
	<g id="POLYLINE_1000_">
		
			<path fill="none" stroke="#FF6B6B" stroke-width="2.75" stroke-linecap="round" stroke-linejoin="round" stroke-miterlimit="10" d="
			M222.684,247.697c-2.307-2.081-4.465-4.392-6.252-6.938c-1.266-1.817-2.372-3.788-3.027-5.912c-0.346-1.131-0.558-2.315-0.549-3.5
			c0.004-0.912,0.154-1.828,0.416-2.701c0.407-1.359,1.066-2.643,1.794-3.857c1.359-2.253,3.183-4.612,4.565-6.85
			c1.177-1.907,2.208-3.971,2.561-6.203c0.726-4.636-1.082-9.809-2.1-14.296c-0.649-2.807-1.185-5.718-0.914-8.607
			c0.248-2.648,1.133-5.201,2.19-7.626c1.859-4.21,4.514-8.79,6.024-13.138c2.242-6.146,2.158-12.838,1.743-19.281l-0.97-12.014
			c-0.366-5.202-0.502-10.537,0.456-15.681c1.072-5.996,3.658-11.926,8.264-16.04c2.031-1.839,4.423-3.267,6.919-4.379
			c3.762-1.667,7.815-2.699,11.888-3.243c3.401-0.447,6.896-0.534,10.282,0.078l2.984,0.543c1.834,0.341,4,0.309,5.854,0.507
			c1.281,0.138,2.561,0.405,3.77,0.856c1.275,0.472,2.484,1.144,3.612,1.9c2.253,1.522,4.256,3.415,6.023,5.477
			c1.976,2.317,3.674,4.894,5,7.636c1.974,4.083,3.035,8.574,3.534,13.066c0.498,4.742,0.46,9.594-0.313,14.305
			c-0.368,2.213-1.03,4.419-1.745,6.544"/>
	</g>
	<g id="POLYLINE_999_">
		
			<path fill="none" stroke="#FF6B6B" stroke-width="2.75" stroke-linecap="round" stroke-linejoin="round" stroke-miterlimit="10" d="
			M253.576,173.091c1.005,2.438,1.721,5.047,1.76,7.698c0.024,1.801-0.311,3.639-1.177,5.232c-0.989,1.817-2.408,3.21-4.042,4.417
			c-1.789,1.305-3.796,2.316-5.882,3.053"/>
	</g>
	<g id="POLYLINE_998_">
		
			<path fill="none" stroke="#FF6B6B" stroke-width="2.75" stroke-linecap="round" stroke-linejoin="round" stroke-miterlimit="10" d="
			M282.674,203.794c-0.438-7.806,0.191-15.72,2.086-23.313"/>
	</g>
	<g id="POLYLINE_997_">
		
			<path fill="none" stroke="#FF6B6B" stroke-width="2.75" stroke-linecap="round" stroke-linejoin="round" stroke-miterlimit="10" d="
			M243.414,155.975c-1.45-0.406-3.058-0.753-4.433-1.368c-1.509-0.638-2.991-1.69-3.905-3.005c-0.672-0.947-1.139-2.029-1.482-3.134
			c-0.501-1.638-0.741-3.362-0.799-5.072c-0.056-1.986,0.113-4.006,0.662-5.921c0.338-1.171,0.913-2.481,1.83-3.264
			c0.065-0.054,0.097-0.08,0.097-0.08c0.065-0.051,0.098-0.075,0.098-0.075c0.066-0.048,0.099-0.07,0.099-0.07
			c0.067-0.044,0.101-0.066,0.101-0.066c0.068-0.041,0.102-0.061,0.102-0.061c0.068-0.038,0.103-0.056,0.103-0.056
			c0.069-0.034,0.104-0.051,0.104-0.051c0.07-0.031,0.104-0.046,0.104-0.046c0.07-0.028,0.105-0.041,0.105-0.041
			c0.071-0.024,0.106-0.036,0.106-0.036c0.071-0.021,0.107-0.031,0.107-0.031c0.072-0.018,0.108-0.026,0.108-0.026
			c0.072-0.014,0.108-0.02,0.108-0.02c0.072-0.011,0.109-0.015,0.109-0.015c0.073-0.007,0.109-0.01,0.109-0.01
			c0.073-0.004,0.11-0.005,0.11-0.005c0.073,0,0.11,0,0.11,0c0.074,0.003,0.111,0.006,0.111,0.006
			c0.074,0.007,0.111,0.011,0.111,0.011c0.074,0.01,0.111,0.016,0.111,0.016c0.074,0.014,0.111,0.022,0.111,0.022
			c0.074,0.017,0.112,0.027,0.112,0.027c0.074,0.021,0.112,0.032,0.112,0.032c0.074,0.025,0.112,0.038,0.112,0.038
			c0.074,0.028,0.112,0.043,0.112,0.043c0.074,0.032,0.112,0.049,0.112,0.049c0.074,0.035,0.112,0.054,0.112,0.054
			c0.074,0.039,0.111,0.06,0.111,0.06c0.074,0.043,0.111,0.065,0.111,0.065c0.074,0.047,0.111,0.071,0.111,0.071
			c0.68,0.468,1.124,1.015,1.602,1.623c0.642,0.833,1.577,2.293,2.173,3.178c0.489,0.706,1.06,1.514,1.709,2.052
			c0.07,0.056,0.094,0.074,0.094,0.074c0.07,0.052,0.094,0.069,0.094,0.069c0.07,0.048,0.094,0.063,0.094,0.063
			c0.07,0.043,0.094,0.057,0.094,0.057c0.07,0.039,0.093,0.051,0.093,0.051c0.07,0.034,0.093,0.045,0.093,0.045
			c0.07,0.029,0.093,0.038,0.093,0.038c0.07,0.024,0.093,0.032,0.093,0.032c0.07,0.019,0.093,0.025,0.093,0.025
			c0.07,0.014,0.093,0.018,0.093,0.018c0.07,0.009,0.093,0.011,0.093,0.011c0.07,0.003,0.093,0.003,0.093,0.003
			c0.07-0.002,0.093-0.003,0.093-0.003c0.07-0.007,0.093-0.01,0.093-0.01c0.07-0.012,0.093-0.017,0.093-0.017
			c0.07-0.017,0.093-0.023,0.093-0.023c0.07-0.021,0.093-0.029,0.093-0.029c0.07-0.026,0.093-0.035,0.093-0.035
			c0.07-0.03,0.093-0.041,0.093-0.041c0.07-0.035,0.094-0.047,0.094-0.047c0.07-0.039,0.094-0.053,0.094-0.053
			c0.07-0.043,0.094-0.058,0.094-0.058c0.732-0.498,1.211-1.119,1.752-1.779c1.337-1.695,2.793-3.857,4.611-5.036
			c1.242-0.816,2.524-1.264,3.917-1.681c1.933-0.561,4.098-1.066,5.875-2.019c2.898-1.507,5.053-4.639,7.148-7.064
			c0.793-0.929,1.711-1.926,2.662-2.667c0.818-0.634,1.668-1.098,2.649-1.24c1.334-0.177,2.579,0.266,3.735,0.865
			c1.1,0.582,2.116,1.336,3.069,2.132c1.81,1.503,3.565,3.389,5.177,5.11c2.005,2.177,4.108,4.427,5.452,7.086
			c1.025,1.983,1.632,4.165,2,6.359c0.809,4.97,0.714,10.091,0.219,15.089c-0.625,5.739-1.797,11.529-4.185,16.813
			c-1.576,3.403-3.769,6.754-7.093,8.657c-3.932,2.208-8.7,1.722-12.939,0.793c-3.336-0.775-6.694-1.749-9.712-3.4
			c-2.175-1.187-4.145-2.766-5.761-4.646c-2.409-2.82-4.141-6.193-5.746-9.516c-0.972-2.058-2.209-4.91-3.238-6.932
			c-0.176-0.317-0.413-0.746-0.622-1c-0.054-0.067-0.081-0.099-0.081-0.099c-0.054-0.062-0.081-0.092-0.081-0.092
			c-0.083-0.085-0.11-0.112-0.11-0.112c-0.085-0.077-0.114-0.101-0.114-0.101c-0.059-0.047-0.088-0.07-0.088-0.07
			c-0.061-0.044-0.091-0.065-0.091-0.065c-0.063-0.041-0.095-0.061-0.095-0.061c-0.066-0.038-0.099-0.057-0.099-0.057
			c-0.069-0.036-0.104-0.053-0.104-0.053c-0.072-0.034-0.109-0.05-0.109-0.05C243.782,156.087,243.657,156.05,243.414,155.975z"/>
	</g>
	<g id="POLYLINE_996_">
		
			<path fill="none" stroke="#FF6B6B" stroke-width="2.75" stroke-linecap="round" stroke-linejoin="round" stroke-miterlimit="10" d="
			M234.567,206.381c0.076-3.039,0.897-6.151,2.648-8.663c0.933-1.332,2.201-2.427,3.656-3.155c1.654-0.836,3.517-1.22,5.364-1.242
			c2.254-0.025,4.492,0.464,6.648,1.083c1.94,0.54,4.671,1.565,6.59,2.242c3.891,1.402,9.635,3.374,13.362,5.073"/>
	</g>
	<g id="POLYLINE_995_">
		
			<path fill="none" stroke="#FF6B6B" stroke-width="2.75" stroke-linecap="round" stroke-linejoin="round" stroke-miterlimit="10" d="
			M318.607,280.34l1.834,11.881c0.142,1.001,0.4,3.019,0.513,4.023c0.527,5.046,0.913,11.122,2.261,15.989
			c1.392,5.392,4.961,11.919,7.354,16.973c1.606,3.375,3.018,6.92,3.998,10.529c1.47,5.275,2.266,10.847,2.865,16.286"/>
	</g>
	<g id="POLYLINE_994_">
		
			<path fill="none" stroke="#FF6B6B" stroke-width="2.75" stroke-linecap="round" stroke-linejoin="round" stroke-miterlimit="10" d="
			M267.937,229.883c-0.738,6.314-1.824,12.699-4.004,18.685c-4.427,12.151-12.84,24.339-19.726,35.283
			c-4.136,6.608-8.044,13.655-9.491,21.396c-0.387,2.097-0.581,4.246-0.546,6.378c0.044,2.745,0.449,5.493,1.085,8.161
			c1.472,6.108,4.107,11.919,7.194,17.372"/>
	</g>
	<g id="POLYLINE_993_">
		
			<path fill="none" stroke="#FF6B6B" stroke-width="2.75" stroke-linecap="round" stroke-linejoin="round" stroke-miterlimit="10" d="
			M248.408,299.396c0.501,2.506,0.914,5.094,1.044,7.648c0.138,2.56,0,5.159-0.364,7.696c-0.533,3.737-1.56,7.478-2.681,11.08
			c-2.129,6.773-5.128,14.452-7.729,21.086"/>
	</g>
	<g id="POLYLINE_992_">
		
			<path fill="none" stroke="#FF6B6B" stroke-width="2.75" stroke-linecap="round" stroke-linejoin="round" stroke-miterlimit="10" d="
			M266.679,367.03c-4.026,9.592-6.924,20.015-4.667,30.423c1.048,4.89,3.143,9.518,5.58,13.863
			c3.538,6.247,7.925,12.086,12.603,17.523l4.122,4.642c1.207,1.384,2.341,2.876,3.238,4.481c1.791,3.204,2.936,6.797,4.017,10.292
			c2.088,6.991,3.804,14.509,5.297,21.651c2.235,10.568,4.151,23.059,5.597,33.795c0.577,3.724,1.337,7.538,2.351,11.164
			c2.875,10.327,7.706,21.745,9.597,32.301c1.221,6.559,1.555,15.199,2.251,21.865c0.714,6.855,1.932,14.269,3.241,21.047
			c0.972,4.938,2.285,10.809,3.565,15.672c1.534,5.719,4.504,16.283,5.667,21.98c1.737,7.788,4.435,25.77,6.133,33.606
			c0.286,1.274,0.62,2.7,1.018,3.948c0.272,0.856,0.645,1.828,1.228,2.468c0.08,0.085,0.107,0.113,0.107,0.113
			c0.083,0.081,0.111,0.107,0.111,0.107c0.057,0.051,0.087,0.076,0.087,0.076c0.059,0.049,0.089,0.073,0.089,0.073
			c0.061,0.047,0.092,0.07,0.092,0.07c0.063,0.045,0.095,0.067,0.095,0.067c0.915,0.592,1.882,0.727,2.912,0.864
			c1.467,0.166,2.99,0.163,4.464,0.101c2.799-0.138,5.632-0.513,8.347-1.219c1.505-0.407,3.024-0.905,4.346-1.749
			c1.135-0.717,2.033-1.759,2.51-2.965c0.503-1.242,0.672-2.597,0.767-3.925c0.127-1.963,0.034-4.045-0.068-6.011
			c-1.155-12.472-1.467-49.629-1.791-62.672c-0.3-8.752-0.781-18.917-1.579-27.583c-0.844-10.237-3.802-33.195-5.087-43.688
			c-0.601-5.286-1.115-10.932-1.344-16.243c-0.271-5.813-0.215-12.136-0.029-17.963l1.724-37.197
			c0.318-9.786,0.425-20.128-0.223-29.88c-0.658-10.32-2.091-20.822-4.115-30.96c-1-4.968-2.212-10.453-3.531-15.343
			c-0.84-3.058-1.797-6.276-2.992-9.212c-0.469-1.144-0.996-2.301-1.614-3.372c-0.405-0.702-0.896-1.43-1.449-2.011
			c-0.595-0.63-1.293-1.061-2.056-1.245c-0.881-0.209-1.662-0.148-2.5-0.077c-4.72,0.545-9.766,1.037-14.501,1.093
			c-8.186,0.133-16.717-0.543-24.867-1.327c-10.641-1.083-21.632-2.559-32.135-4.586c-4.886-0.924-11.178-2.548-16.031-3.774
			c-3.022-0.676-7.365-1.853-9.926,0.44c-0.607,0.575-0.977,1.248-1.333,1.936c-0.465,0.92-0.897,2.026-1.271,2.996
			c-2.992,8.164-5.32,16.907-7.439,25.34c-2.924,11.989-5.43,24.322-5.817,36.686c-0.246,4.171,0.061,20.844,0.073,25.357
			c-0.001,11.67-0.35,26.61-0.875,38.268c-0.482,9.618-0.972,19.78-2.574,29.27c-0.804,4.774-1.937,9.592-3.454,14.191
			c-1.647,5.033-3.91,10.061-6.204,14.832c-3.439,7.007-8.95,17.705-11.819,24.886c-1.968,4.813-3.622,9.911-4.961,14.935
			c-4.085,15.225-6.35,33.984-9.454,49.45c-1.93,9.678-4.255,20.558-7.037,30.026c0,0-0.078,0.294-0.078,0.294
			s-0.075,0.294-0.075,0.294l-0.035,0.147c-0.104,0.435-0.181,0.912-0.188,1.3c-0.004,0.209,0.01,0.383,0.028,0.522
			c0.01,0.068,0.016,0.102,0.016,0.102c0.012,0.068,0.019,0.102,0.019,0.102c0.015,0.067,0.023,0.101,0.023,0.101
			c0.018,0.067,0.027,0.1,0.027,0.1c0.02,0.066,0.031,0.099,0.031,0.099c0.023,0.066,0.036,0.098,0.036,0.098
			c0.026,0.065,0.04,0.097,0.04,0.097c0.029,0.064,0.045,0.097,0.045,0.097c0.032,0.064,0.049,0.096,0.049,0.096
			c0.036,0.063,0.054,0.095,0.054,0.095c0.039,0.062,0.059,0.094,0.059,0.094c0.042,0.062,0.064,0.092,0.064,0.092
			c0.046,0.061,0.07,0.091,0.07,0.091c0.049,0.06,0.075,0.09,0.075,0.09c0.053,0.059,0.081,0.089,0.081,0.089
			c0.057,0.059,0.087,0.088,0.087,0.088c0.061,0.058,0.092,0.087,0.092,0.087c0.065,0.057,0.098,0.085,0.098,0.085
			c0.069,0.056,0.105,0.084,0.105,0.084c0.593,0.447,1.167,0.692,1.83,0.949c0.837,0.312,1.73,0.546,2.602,0.739
			c3.735,0.785,7.615,1.023,11.426,0.997c1.812-0.03,3.689-0.121,5.478-0.414c1.299-0.215,2.792-0.6,3.724-1.546
			c0.621-0.626,0.952-1.298,1.299-2.028c1.572-3.471,4.238-12.049,5.549-15.74c3.202-9.217,11.528-28.774,15.283-38.058
			c1.809-4.579,4.027-10.324,5.602-14.931c1.835-5.253,7.096-22.188,8.988-27.305c2.007-5.645,4.495-11.245,7.364-16.504
			c3.06-5.633,7.786-13.637,10.626-19.327c1.993-3.938,3.858-8.235,5.472-12.345c4.326-10.973,9.098-26.541,13.098-37.696
			c3.756-10.702,10.324-25.196,14.976-35.651"/>
	</g>
	<g id="POLYLINE_991_">
		
			<path fill="none" stroke="#FF6B6B" stroke-width="2.75" stroke-linecap="round" stroke-linejoin="round" stroke-miterlimit="10" d="
			M242.988,285.819c-0.091,2.873,0.797,5.686,1.892,8.31c0.349,0.821,0.77,1.725,1.176,2.519c0.352,0.69,0.814,1.476,1.326,1.995
			c0.084,0.084,0.112,0.111,0.112,0.111c1.334,1.305,3.206,1.11,4.86,0.816c0.98-0.182,2.007-0.458,2.964-0.739
			c4.153-1.261,10.235-3.571,14.381-4.833c4.801-1.525,9.831-2.621,14.808-3.389c7.673-1.249,19.078-2.213,26.287-4.944
			c2.044-0.779,4.038-1.783,5.723-3.193c3.887-3.212,5.672-8.195,6.462-13.039c1.139-7.47,1.172-15.287-1.109-22.552"/>
	</g>
	<g id="POLYLINE_768_">
		
			<path fill="none" stroke="#FF6B6B" stroke-width="2.75" stroke-linecap="round" stroke-linejoin="round" stroke-miterlimit="10" d="
			M249.903,201.699c-2.741-0.429-5.564-0.752-8.332-0.416c-1.116,0.142-2.232,0.404-3.255,0.882
			c-1.057,0.487-1.934,1.214-2.578,2.096c-0.795,1.075-1.309,2.337-1.702,3.608c-1.021,3.288-1.613,8.711-2.189,12.143
			c-0.791,5.117-2.192,10.202-3.97,15.061c-4.817,13.348-13.349,28.861-18.264,42.176c-2.408,6.511-4.462,13.272-5.488,20.148
			c-0.671,4.588-0.901,9.32-0.119,13.908c1.079,6.542,4.27,12.537,8.014,17.934c3.527,5.049,7.688,9.75,12.274,13.861
			c3.393,3.023,7.087,5.781,11.075,7.972"/>
	</g>
	<g id="POLYLINE_711_">
		
			<path fill="none" stroke="#FF6B6B" stroke-width="2.75" stroke-linecap="round" stroke-linejoin="round" stroke-miterlimit="10" d="
			M300.923,233.494c-2.529-0.624-5.174-0.683-7.764-0.563c-3.446,0.195-8.27,0.69-11.687,0.311
			c-3.931-0.376-7.808-1.418-11.545-2.666c-2.812-0.957-5.869-2.108-8.607-3.26c-2-0.863-3.976-1.876-5.709-3.205
			c-2.225-1.678-3.993-3.905-5.333-6.337c-1.037-1.87-1.878-3.865-2.472-5.919c-0.459-1.618-0.788-3.303-0.774-4.99
			c0.005-0.868,0.132-1.804,0.448-2.603c0.341-0.882,0.953-1.611,1.669-2.111c0.8-0.563,1.625-0.855,2.514-1.098
			c1.037-0.273,2.13-0.411,3.198-0.5c2.508-0.196,5.118-0.131,7.629,0.011c5.187,0.321,10.413,1.046,15.5,2.107
			c3.7,0.798,7.447,1.751,10.926,3.261c4.185,1.766,7.911,4.809,11.928,6.892c5.768,3.007,11.981,5.282,18.17,7.253
			c7.554,2.354,16.536,4.574,23.756,7.792c4.417,1.931,8.748,4.237,12.619,7.124c2.658,1.996,5.145,4.305,7.027,7.061
			c1.943,2.809,3.076,6.186,3.105,9.609c0.042,3.261-0.952,6.811-3.468,9.009c-1.253,1.089-2.833,1.741-4.448,2.069
			c-2.738,0.547-5.581,0.299-8.3-0.246c-5.88-1.206-11.342-3.968-16.323-7.255c-7.529-4.887-15.052-12.082-22.459-17.134
			C307.569,236.137,304.392,234.353,300.923,233.494z"/>
	</g>
</g>
<g id="AG-OUTLINE">
	<g id="POLYLINE_1049_">
		
			<path fill="none" stroke="#FF6B6B" stroke-width="3.5" stroke-linecap="round" stroke-linejoin="round" stroke-miterlimit="10" d="
			M718.578,145.55c0.789-1.208,1.132-2.537,1.435-3.916c0.369-1.789,0.623-3.648,0.786-5.468c0.406-4.874,0.221-9.925-1.431-14.57
			c-0.658-1.829-1.593-3.564-2.713-5.15c-3.992-5.582-9.926-9.428-15.962-12.499c-5.071-2.546-10.545-4.714-16.29-4.816
			c-4.557-0.1-9.068,1.147-13.158,3.101c-3.392,1.641-6.59,3.797-9.15,6.581c-1.507,1.648-2.742,3.548-3.671,5.578
			c-1.152,2.501-1.857,5.209-2.367,7.907c-2.214-0.994-4.829-1.748-7.186-0.909c-2.32,0.802-4.082,2.693-5.392,4.678
			c-2.123,3.228-3.237,7.013-3.849,10.8c-0.604,3.685-1.032,7.859-2.592,11.269c-0.984,2.215-2.525,4.625-3.568,6.817
			c-0.693,1.482-1.289,3.093-1.194,4.754c0.065,1.177,0.536,2.288,1.163,3.271c0.837,1.306,1.934,2.435,3.084,3.466
			c1.726,1.544,3.749,2.956,5.659,4.27c1.648,1.128,3.371,2.321,5.225,3.083c1.973,0.827,4.11,1.268,6.218,1.594
			c2.681,0.401,5.448,0.605,8.159,0.581c0.356,5.759,0.146,11.617-0.656,17.332c-4.57,1.466-8.861,3.958-12.148,7.482
			c-5.797,6.209-8.487,14.781-8.905,23.145c-0.745,3.839-1.804,8.354-1.822,12.251c-0.059,2.885,0.329,5.802,0.883,8.629
			c0.726,3.762,1.945,8.277,2.932,12.003c-3.111,3.862-6.235,8.097-8.94,12.252c-2.451,3.786-4.673,7.796-6.286,12.013
			c-3.044,7.969-4.126,16.729-2.97,25.189c1.244,8.881,5.106,17.215,9.996,24.66l4.893,7.288c0.972,1.496,1.959,3.077,2.749,4.675
			c0.588,1.192,1.089,2.447,1.354,3.752c0.367,1.737,0.267,3.542-0.082,5.273c-0.54,2.84-2.27,7.356-3.18,10.139
			c-0.531,1.643-1.071,3.371-1.37,5.071c-0.153,0.913-0.272,1.947-0.073,2.848c0.019,0.078,0.029,0.116,0.029,0.116
			c0.021,0.075,0.032,0.112,0.032,0.112c0.024,0.072,0.036,0.108,0.036,0.108c0.026,0.069,0.04,0.104,0.04,0.104
			c0.029,0.067,0.044,0.099,0.044,0.099c0.032,0.064,0.048,0.095,0.048,0.095c0.034,0.061,0.052,0.091,0.052,0.091
			c0.056,0.086,0.076,0.114,0.076,0.114c0.055,0.072,0.07,0.09,0.07,0.09c0.076,0.085,0.091,0.101,0.091,0.101
			c-1.696,1.823-3.28,3.796-4.628,5.89c-1.659,2.567-3.032,5.347-4.205,8.167c-1.394,3.435-2.581,7.047-2.825,10.768
			c-0.072,1.293-0.014,2.613,0.312,3.872c0.256,1.038,0.808,2.148,1.452,2.958c-1.328,20.059-5.383,75.873-6.076,95.031
			c-0.3,6.308-0.38,15.894-0.652,22.195c-0.142,2.565-0.393,5.196-0.952,7.705c-0.755,3.445-2.153,6.763-3.628,9.956
			c-3.334,6.973-7.4,15.208-10.164,22.33c-1.128,2.914-2.205,5.943-2.954,8.976c-0.47,1.997-0.893,4.1-0.699,6.156
			c0.01,0.126,0.033,0.245,0.038,0.298c0.011,0.072,0.023,0.144,0.023,0.144c0.022,0.098,0.043,0.245,0.054,0.279
			c0.114,0.568,0.35,1.098,0.63,1.513c-0.501,3.55-1.422,8.604-1.88,12.076c-0.908,6.401-1.662,13.199-2.119,19.646
			c-0.293,4.154-0.493,8.8-0.54,12.962c-0.09,7.502-0.297,17.81-0.64,25.282c-0.298,5.76-0.541,11.786-1.92,17.401
			c-0.41,1.655-0.927,3.324-1.633,4.878c-0.483,1.065-1.091,2.101-1.726,3.082c-1.811,2.775-4.144,5.209-6.77,7.222
			c-3.519,2.736-7.726,4.617-12.148,5.248c-1.793,0.297-3.587,0.844-5.098,1.879c-1.071,0.733-1.935,1.701-2.501,2.791
			c-0.348,0.678-0.587,1.278-0.657,1.964c-0.006,0.086-0.008,0.114-0.008,0.114c-0.003,0.084-0.003,0.112-0.003,0.112
			c0,0.083,0.001,0.11,0.001,0.11c0.004,0.081,0.006,0.108,0.006,0.108c0.007,0.08,0.01,0.106,0.01,0.106
			c0.011,0.078,0.015,0.104,0.015,0.104c0.014,0.076,0.019,0.102,0.019,0.102c0.017,0.075,0.024,0.099,0.024,0.099
			c0.021,0.073,0.029,0.097,0.029,0.097c0.024,0.072,0.033,0.095,0.033,0.095c0.028,0.07,0.038,0.093,0.038,0.093
			c0.031,0.068,0.042,0.091,0.042,0.091c0.035,0.067,0.047,0.089,0.047,0.089c0.051,0.086,0.065,0.108,0.065,0.108
			c0.057,0.084,0.072,0.104,0.072,0.104c0.063,0.081,0.079,0.101,0.079,0.101c0.068,0.078,0.086,0.098,0.086,0.098
			c0.074,0.076,0.093,0.094,0.093,0.094c0.08,0.073,0.1,0.091,0.1,0.091c0.086,0.07,0.108,0.088,0.108,0.088
			c0.068,0.051,0.091,0.068,0.091,0.068c0.071,0.049,0.096,0.066,0.096,0.066c0.667,0.44,1.44,0.621,2.152,0.756
			c0.781,0.136,1.589,0.19,2.381,0.206c10.909-0.055,31.757,0.132,42.567-0.068c1.782-0.284,3.044-1.639,3.796-3.135
			c0.827-1.626,1.29-3.434,1.372-5.256c0.113-1.85-0.312-3.725-0.55-5.55c-0.43-3.202-0.908-7.568-1.223-10.791
			c-0.057-0.64-0.094-1.321-0.109-1.964c-0.057-2.529,0.177-5.105,0.564-7.603c0.426-2.728,1.058-5.488,1.79-8.15
			c0.47-2.029,9.126-28.581,9.967-31.297c3.668-11.467,6.183-23.732,8.327-35.574c2.31-1.517,3.554-4.097,4.518-6.594
			c1.291-3.39,2.493-8.786,3.428-12.354c1.031-3.954,2.417-8.01,3.886-11.826c3.455-8.856,8.622-20.106,11.724-29.07
			c3.903-10.975,10.939-33.285,14.997-44.116c3.088-8.299,6.598-17.073,10.394-25.066c1.098-2.279,2.294-4.684,3.601-6.853
			c0.578-0.936,1.205-1.944,1.984-2.71c0.073-0.067,0.109-0.099,0.109-0.099c0.071-0.059,0.106-0.087,0.106-0.087
			c0.068-0.051,0.102-0.075,0.102-0.075c0.066-0.043,0.098-0.063,0.098-0.063c0.063-0.035,0.094-0.051,0.094-0.051
			c0.061-0.027,0.091-0.038,0.091-0.038c0.087-0.025,0.115-0.031,0.115-0.031c0.085-0.008,0.1-0.008,0.1-0.008
			c0.073,0.007,0.087,0.01,0.087,0.01c0.082,0.026,0.095,0.032,0.095,0.032c0.077,0.045,0.089,0.054,0.089,0.054
			c0.083,0.076,0.094,0.089,0.094,0.089c0.066,0.085,0.077,0.1,0.077,0.1c0.052,0.084,0.062,0.102,0.062,0.102
			c0.039,0.076,0.049,0.096,0.049,0.096c0.289,0.68,0.355,1.322,0.469,2.023l0.545,4.329c0.427,3.29,1.2,6.57,2.225,9.724
			c3.002,9.464,10.39,24.786,14.412,34.033c3.073,7.027,5.7,14.356,7.687,21.764c2.016,7.491,4.614,18.704,7.445,25.79
			c2.78,7.254,7.348,15.779,10.531,22.88c0.755,1.707,1.505,3.525,2.091,5.297c0.45,1.36,1.124,3.748,1.733,5.025
			c0.298,0.644,0.704,1.302,1.158,1.776c0.505,0.542,1.121,0.921,1.745,1.16c2.323,8.201,5.218,16.485,8.513,24.346
			c3.812,9.431,15.008,30.774,19.639,40.212c1.327,2.714,2.356,5.616,2.82,8.608c0.227,1.46,0.32,2.952,0.254,4.429
			c-0.026,0.745-0.133,1.611-0.214,2.357c-0.086,0.855-0.166,1.861-0.199,2.716c-0.049,1.257-0.038,2.545,0.113,3.795
			c0.103,0.824,0.268,1.653,0.57,2.429c0.343,0.815,0.479,1.639,0.542,2.507c0.172,2.88-0.451,5.758-1.071,8.555
			c-0.348,1.669-0.621,3.387-0.729,5.089c-0.074,1.209-0.069,2.448,0.093,3.65c0.098,0.66,0.219,1.409,0.486,2.004
			c0.042,0.086,0.056,0.115,0.056,0.115c0.045,0.085,0.061,0.113,0.061,0.113c0.048,0.083,0.065,0.111,0.065,0.111
			c0.052,0.082,0.07,0.109,0.07,0.109c0.055,0.081,0.074,0.107,0.074,0.107c0.059,0.079,0.079,0.105,0.079,0.105
			c0.859,1.077,2.112,1.593,3.335,1.969c1.621,0.473,3.331,0.659,5.013,0.757c0.902,0.122,18.487,0.04,19.935,0.062
			c0.629,0,1.281-0.025,1.908-0.082c1.14-0.103,2.362-0.335,3.41-0.77c1.057-0.432,1.977-1.101,2.584-1.994
			c0.46-0.663,0.655-1.328,0.86-2.056c0.284-1.045,0.522-2.258,0.288-3.316c-0.017-0.07-0.026-0.105-0.026-0.105
			c-0.019-0.068-0.03-0.102-0.03-0.102c-0.022-0.066-0.033-0.099-0.033-0.099c-0.024-0.064-0.036-0.095-0.036-0.095
			c-0.026-0.062-0.039-0.092-0.039-0.092c-0.028-0.06-0.043-0.089-0.043-0.089c-0.046-0.086-0.062-0.114-0.062-0.114
			c-0.05-0.081-0.068-0.108-0.068-0.108c-0.055-0.077-0.074-0.102-0.074-0.102c-0.059-0.073-0.079-0.096-0.079-0.096
			c-0.063-0.068-0.085-0.09-0.085-0.09c-0.068-0.064-0.091-0.085-0.091-0.085c-2.264-1.642-5.279-3.288-7.698-4.725
			c-0.55-0.317-1.095-0.685-1.593-1.079c-2.287-1.792-3.885-4.333-4.898-7.031c-0.686-1.777-1.103-3.694-1.458-5.563
			c-0.409-1.961-0.911-4.033-1.507-5.943c-0.647-2.059-1.426-4.115-2.518-5.983c-0.493-0.78-0.933-1.584-1.263-2.448
			c-0.865-2.221-1.284-4.61-1.564-6.969c-0.289-2.429-0.358-5.011-0.419-7.458c-0.07-1.896-0.225-4.157-0.394-6.048
			c-0.987-10.166-2.728-20.58-4.964-30.545c-2.336-10.217-5.554-20.787-8.964-30.707c0.542-1.536,0.498-3.147,0.325-4.737
			c-0.334-2.83-1.218-5.852-2.001-8.6c-4.413-14.977-9.172-30.694-10.291-46.305c-0.785-10.41-0.542-25.123-1.127-35.549
			c-0.635-12.472-2.22-26.025-3.825-38.433c-1.261-9.488-3.129-22.002-4.747-31.458c0,0-0.149-0.792-0.149-0.792
			s-0.149-0.742-0.149-0.742c-0.086-0.405-0.202-0.935-0.305-1.34c-0.363-1.415-0.834-2.913-1.855-3.951
			c-1.055-1.039-2.39-1.434-3.761-1.788c1.062-2.254,1.133-4.817,1.023-7.264c-0.459-7.579-2.953-16.558-3.911-24.094
			c-1.058-7.577-1.207-17.338-1.997-24.965c-0.689-6.772-2.465-15.852-3.094-22.628c-0.332-3.497-0.493-7.096-0.284-10.604
			c0.134-2.343,0.466-4.718,0.925-7.019c1.282-6.581,4.039-13.919,5.719-20.41c1.258-4.83,1.934-9.92,1.086-14.878
			c-0.466-2.807-1.411-5.541-2.742-8.054c-1.377-2.621-3.188-5.018-5.132-7.244c-5.591-6.397-13.158-12.211-19.753-17.551
			l9.028-0.367c10.189-0.572,20.456-2.577,30.395-4.835c6.018-1.41,12.361-3.066,18.243-4.958c1.726-0.569,3.535-1.175,5.178-1.948
			c1.15-0.537,2.34-1.236,3.268-2.09c0.987-0.892,1.699-1.999,2.151-3.158c0.94-2.429,1.018-5.157,0.411-7.677
			c-0.564-2.338-1.8-4.515-3.559-6.16c-1.405-1.327-3.071-2.362-4.804-3.204c-2.463-1.188-5.115-2.019-7.774-2.639
			c-8.923-2.039-18.246-1.932-27.282-0.737c-6.916,0.875-15.431,2.524-22.362,1.952c-5.015-0.357-10.347-1.644-15.26-2.739
			c3.429-3.166,6.723-6.759,8.292-11.237c0.777-2.169,1.134-4.487,1.347-6.774c0.354-3.635,0.253-8.801,0.566-12.446
			c0.191-2.504,0.911-5.314,1.441-7.771c0.246-1.182,0.42-2.41,0.451-3.619C719.193,149.897,718.924,147.691,718.578,145.55z"/>
	</g>
	<g id="POLYLINE_1050_">
		
			<path fill="none" stroke="#FF6B6B" stroke-width="3.5" stroke-linecap="round" stroke-linejoin="round" stroke-miterlimit="10" d="
			M294.694,148.342c0.714-2.128,1.376-4.33,1.744-6.544c0.772-4.711,0.811-9.562,0.313-14.305c-0.499-4.493-1.56-8.983-3.534-13.066
			c-1.326-2.743-3.024-5.319-5-7.636c-1.766-2.062-3.769-3.955-6.023-5.477c-1.128-0.755-2.337-1.428-3.612-1.9
			c-1.209-0.451-2.489-0.718-3.77-0.856c-1.854-0.198-4.018-0.164-5.854-0.507l-2.984-0.543c-3.386-0.612-6.881-0.525-10.282-0.078
			c-4.073,0.545-8.126,1.576-11.888,3.243c-2.558,1.139-5.004,2.611-7.068,4.514c-4.516,4.11-7.054,9.974-8.115,15.905
			c-0.958,5.143-0.823,10.482-0.456,15.681l0.97,12.014c0.414,6.443,0.498,13.134-1.743,19.281
			c-1.508,4.343-4.166,8.931-6.024,13.138c-1.057,2.425-1.943,4.978-2.19,7.626c-0.272,2.889,0.264,5.801,0.914,8.607
			c1.018,4.507,2.825,9.65,2.1,14.296c-0.37,2.343-1.484,4.495-2.735,6.483c-1.399,2.223-3.221,4.578-4.552,6.843
			c-0.685,1.173-1.299,2.414-1.673,3.724c-0.592,1.983-0.437,4.101,0.174,6.06c0.655,2.124,1.762,4.095,3.027,5.912
			c1.787,2.546,3.944,4.857,6.252,6.938c-3.137,6.894-9.633,20.501-12.236,27.362c-1.841,4.754-3.539,9.744-4.777,14.686
			c-1.379,5.547-2.334,11.301-2.128,17.033c0.116,3.04,0.621,6.079,1.533,8.982c1.17,3.754,2.99,7.31,5.068,10.639
			c3.435,5.46,7.633,10.513,12.286,14.977c3.902,3.715,8.211,7.095,12.94,9.695c-1.424,3.454-2.649,7.413-3.747,10.999
			c-1.869,6.238-3.665,13.051-5.158,19.391c-1.55,6.689-3.026,13.752-3.925,20.549c-0.746,5.556-1.111,11.375-1.167,16.983
			c-0.03,5.767,0.242,21.533,0.153,27.127c-0.132,11.814-0.506,26.73-1.171,38.473c-0.456,7.985-1.046,16.352-2.467,24.217
			c-0.855,4.768-2.054,9.575-3.638,14.154c-1.586,4.608-3.699,9.272-5.81,13.665c-3.447,7.026-8.945,17.691-11.819,24.886
			c-1.76,4.309-3.289,8.887-4.535,13.372c-3.472,12.242-5.893,28.74-8.083,41.356c-2.385,13.246-5.228,27.232-8.961,40.165
			c-0.152,0.593-0.288,1.301-0.241,1.885c0.007,0.085,0.01,0.113,0.01,0.113c0.01,0.084,0.014,0.112,0.014,0.112
			c0.014,0.084,0.019,0.111,0.019,0.111c0.017,0.083,0.023,0.111,0.023,0.111c0.02,0.082,0.028,0.11,0.028,0.11
			c0.024,0.082,0.033,0.109,0.033,0.109c0.028,0.081,0.038,0.108,0.038,0.108c0.032,0.08,0.043,0.107,0.043,0.107
			c0.036,0.079,0.048,0.105,0.048,0.105c0.04,0.078,0.054,0.104,0.054,0.104c0.044,0.077,0.06,0.103,0.06,0.103
			c0.049,0.076,0.066,0.102,0.066,0.102c-0.863,1.714-1.483,3.565-2.005,5.409c-0.796,2.854-1.379,5.884-1.846,8.81
			c-2.643,1.333-5.304,2.794-7.701,4.534c-1.347,0.989-2.671,2.096-3.694,3.424c-0.656,0.835-1.022,1.672-1.324,2.625
			c-0.305,0.913-0.564,1.866-0.739,2.813c-0.207,1.131-0.305,2.298-0.224,3.446c0.052,0.83,0.228,1.803,0.638,2.502
			c0.04,0.069,0.061,0.102,0.061,0.102c0.042,0.066,0.064,0.098,0.064,0.098c0.044,0.064,0.067,0.095,0.067,0.095
			c0.046,0.061,0.069,0.091,0.069,0.091c0.048,0.059,0.072,0.087,0.072,0.087c0.075,0.084,0.1,0.111,0.1,0.111
			c0.078,0.079,0.105,0.104,0.105,0.104c0.082,0.074,0.11,0.098,0.11,0.098c0.086,0.069,0.115,0.091,0.115,0.091
			c0.059,0.043,0.089,0.064,0.089,0.064c0.061,0.041,0.092,0.061,0.092,0.061c0.063,0.038,0.095,0.057,0.095,0.057
			c0.065,0.036,0.098,0.053,0.098,0.053c0.067,0.033,0.1,0.05,0.1,0.05c0.068,0.031,0.103,0.046,0.103,0.046
			c0.07,0.029,0.106,0.042,0.106,0.042c0.072,0.026,0.109,0.039,0.109,0.039c0.074,0.024,0.111,0.035,0.111,0.035
			c0.076,0.021,0.114,0.031,0.114,0.031c0.366,0.088,0.657,0.114,0.966,0.117c6.372,0,20.213,0,26.667,0
			c1.247-0.002,2.534-0.059,3.768-0.24c1.386-0.21,2.921-0.581,4.011-1.464c0.085-0.072,0.126-0.108,0.126-0.108
			c0.08-0.074,0.119-0.111,0.119-0.111c0.075-0.076,0.112-0.115,0.112-0.115c0.071-0.078,0.105-0.118,0.105-0.118
			c0.066-0.081,0.098-0.121,0.098-0.121c0.061-0.083,0.091-0.125,0.091-0.125c0.34-0.501,0.456-0.975,0.622-1.521
			c0.242-0.871,0.384-1.785,0.463-2.685c0.106-1.231,0.099-2.49,0.029-3.722c-0.101-1.25-0.165-2.52-0.112-3.775
			c0.252-6.091,1.302-12.526,2.245-18.553c0.647-0.259,1.204-0.623,1.634-1.088c0.446-0.486,0.714-0.961,0.993-1.512
			c0.431-0.875,0.811-1.831,1.157-2.743c0.775-2.032,3.822-11.181,4.583-13.394c3.202-9.217,11.528-28.774,15.283-38.058
			c1.809-4.579,4.027-10.324,5.602-14.931c1.835-5.253,7.096-22.188,8.988-27.305c2.007-5.645,4.495-11.245,7.364-16.504
			c3.06-5.633,7.786-13.637,10.626-19.327c1.993-3.938,3.858-8.235,5.472-12.345c4.326-10.973,9.098-26.541,13.098-37.696
			c3.756-10.702,10.324-25.196,14.976-35.651c2.371,5.942,3.972,12.443,5.488,18.656c3.345,13.998,5.869,29.34,7.771,43.633
			c0.577,3.724,1.337,7.538,2.351,11.164c2.798,10.042,7.494,21.275,9.451,31.513c1.124,5.554,1.604,13.618,2.083,19.34
			c0.681,8.012,2.027,16.459,3.555,24.359c0.972,4.938,2.285,10.81,3.565,15.672c1.267,4.732,4.242,15.397,5.246,20.07
			c1.959,8.317,4.614,26.174,6.362,34.622c0.321,1.499,0.689,3.142,1.138,4.611c0.255,0.822,0.569,1.726,1.065,2.408
			c0.065,0.086,0.098,0.128,0.098,0.128c0.067,0.082,0.101,0.121,0.101,0.121c0.07,0.078,0.106,0.115,0.106,0.115
			c0.073,0.073,0.11,0.109,0.11,0.109c0.076,0.07,0.115,0.103,0.115,0.103c0.079,0.066,0.12,0.098,0.12,0.098
			c0.121,0.099,0.154,0.106,0.212,0.151c0.044,0.028,0.268,1.332,0.268,1.332c0.159,0.977,0.312,2.068,0.422,3.05
			c0.236,2.16,0.362,4.375,0.175,6.543c-0.102,1.133-0.293,2.275-0.659,3.355c-0.207,0.631-0.496,1.152-0.721,1.745
			c-0.267,0.687-0.478,1.407-0.595,2.136c-0.166,0.979-0.134,2.093,0.129,3.028c0.452,1.654,1.576,3.128,3.003,3.985
			c1.445,0.875,3.158,1.166,4.827,1.166c6.757-0.008,19.763,0.012,26.517-0.005c0.67-0.013,1.375-0.047,2.042-0.119
			c0.969-0.108,2.078-0.302,2.902-0.778c0.083-0.051,0.11-0.068,0.11-0.068c0.078-0.053,0.103-0.071,0.103-0.071
			c0.073-0.055,0.096-0.073,0.096-0.073c0.068-0.056,0.09-0.076,0.09-0.076c0.083-0.078,0.103-0.098,0.103-0.098
			c0.078-0.083,0.097-0.104,0.097-0.104c0.057-0.066,0.075-0.089,0.075-0.089c0.055-0.07,0.073-0.093,0.073-0.093
			c0.449-0.601,0.689-1.319,0.856-1.97c0.203-0.822,0.301-1.621,0.364-2.457c0.116-1.603,0.053-3.486-0.895-4.817
			c-0.063-0.085-0.085-0.113-0.085-0.113c-0.066-0.082-0.089-0.109-0.089-0.109c-0.069-0.079-0.092-0.104-0.092-0.104
			c-0.072-0.076-0.096-0.1-0.096-0.1c-0.753-0.71-1.553-1.12-2.441-1.537c-1.137-0.515-2.36-0.916-3.56-1.26
			c-2.604-0.741-5.225-1.754-7.707-2.838c-1.851-4.13-2.846-8.626-3.55-13.08c0.82-1.098,1.166-2.351,1.368-3.669
			c0.217-1.449,0.248-2.952,0.229-4.416c-0.08-3.878-0.642-10.534-0.808-14.412c-0.279-3.339-0.99-46.918-1.108-51.488
			c-0.3-8.752-0.781-18.917-1.579-27.583c-0.844-10.237-3.802-33.195-5.087-43.688c-0.601-5.286-1.115-10.932-1.344-16.243
			c-0.271-5.813-0.215-12.136-0.029-17.963l1.724-37.197c0.318-9.786,0.425-20.128-0.223-29.88
			c-0.658-10.32-2.091-20.822-4.115-30.96c-1-4.968-2.212-10.453-3.531-15.343c-0.84-3.058-1.797-6.276-2.992-9.212
			c-0.469-1.144-0.996-2.301-1.614-3.372c-0.405-0.702-0.896-1.43-1.449-2.011c-0.561-0.59-1.194-1.004-1.916-1.208
			c-0.599-5.441-1.394-11.01-2.865-16.286c-0.98-3.607-2.393-7.154-3.998-10.528c-2.404-5.083-5.953-11.561-7.354-16.973
			c-1.346-4.852-1.737-10.962-2.261-15.989c-0.114-1.005-0.371-3.023-0.513-4.023l-1.834-11.881
			c3.448-4.305,4.446-9.97,4.903-15.328c0.514-6.068,0.208-12.297-1.641-18.131c8.643,6.98,18.021,14.284,29.322,15.935
			c4.016,0.551,8.851,0.305,11.685-2.969c1.132-1.303,1.858-2.922,2.256-4.593c0.735-3.13,0.403-6.472-0.738-9.464
			c-1.501-3.901-4.414-7.084-7.605-9.704c-4.869-3.945-10.541-6.841-16.329-9.183c-5.354-2.222-12.916-4.267-18.52-5.935
			c-6.808-2.036-13.67-4.429-20.038-7.6c-3.238-1.567-6.276-3.765-9.339-5.58c-3.068-1.817-6.454-3.074-9.89-3.995
			c-0.438-7.806,0.191-15.72,2.086-23.313C292.538,174.039,294.797,157.994,294.694,148.342z"/>
	</g>
</g>
</svg>
